<svg width="1921" height="1745" viewBox="0 0 1921 1745" fill="none" xmlns="http://www.w3.org/2000/svg">
<path fill-rule="evenodd" clip-rule="evenodd" d="M678.263 631.007C678.148 608.024 632.585 582.179 613.122 568.854C574.638 542.5 534.613 518.163 494.959 493.438C455.305 468.713 415.544 444.054 377.731 416.909C353.18 399.288 324.331 379.442 307.68 354.281C272.209 300.661 384.048 308.624 413.017 307.451C486.716 304.455 571.248 305.822 640.329 277.9C681.567 261.23 698.011 233.274 689.154 192.53C686.299 179.279 677.849 164.031 685.007 151.122C692.651 137.335 710.237 129.379 724.833 124.044C778.069 104.607 839.277 102.355 895.603 99.915C956.34 97.234 1017.65 98.0183 1077.96 97.8105C1103.53 97.7233 1130.24 89.0972 1154.59 82.0864C1186.51 72.8973 1218.06 62.5755 1249.72 52.5955C1319.37 30.6918 1391.14 7.62186 1464.83 2.05879C1510.98 -1.4265 1561.42 3.28535 1597.27 33.6007C1615.27 48.822 1624.69 71.4496 1635.1 91.5504C1647.7 115.833 1659.79 140.351 1673.2 164.252C1716.4 241.23 1778.08 316.452 1878.2 320.232C1893.34 320.802 1908.22 318.946 1923.29 318.597C1932.89 318.383 1941.43 320.561 1945 329.991C1953.97 353.644 1925.77 390.984 1914.21 409.751C1888.9 450.83 1860.35 490.067 1833.6 530.322C1815.91 556.944 1785.29 593.325 1784.96 625.671C1784.68 654.492 1825.5 675.323 1847.73 689.519C1868.55 702.81 1906.29 721.41 1908.57 748.447C1909.68 761.557 1900.47 772.422 1890.86 780.854C1874.01 795.599 1854.59 806.002 1839.43 822.825C1814.58 850.426 1793.81 888.402 1797.18 925.594C1799.52 951.365 1815.18 968.242 1835.1 984.375C1843.47 991.158 1850.27 995.957 1850.71 1006.97C1851.43 1024.46 1844.13 1042.96 1838.12 1059.17C1816.62 1117.2 1786.09 1173.3 1752.13 1225.69C1735.15 1251.87 1716.82 1277.97 1694.32 1300.3C1679.58 1314.97 1659.7 1332.42 1637.22 1332.4C1611.19 1332.4 1583.65 1323.58 1558.35 1316.99C1511.09 1304.66 1464.41 1290.41 1417.91 1275.79C1310.37 1241.97 1203.85 1205.41 1098.34 1166.11C1024.02 1138.38 948.126 1110.62 878.253 1073.75C864.626 1066.51 851.764 1058.07 839.841 1048.54C827.101 1038.54 811.292 1034.06 795.262 1030.72C695.77 1010.01 586.771 1025.91 486.865 1035.88C461.507 1038.41 436.149 1040.95 410.719 1042.72C388.858 1044.24 362.686 1048.6 341.439 1042.05C299.572 1029.15 336.172 981.593 351.645 962.216C406.123 893.992 476.41 836.27 541.558 777.342C572.533 749.279 603.743 721.289 633.034 691.637C648.286 676.221 678.362 651.154 678.263 631.007Z" stroke="#112960"/>
<path fill-rule="evenodd" clip-rule="evenodd" d="M697.036 627.132C680.338 602.813 651.042 584.838 626.723 567.922C591.727 543.569 555.631 520.569 520.078 496.907C486.46 474.53 452.771 451.899 421.639 426.488C402.655 410.992 378.837 392.461 369.845 369.542C350.34 319.865 455.271 327.402 481.175 326.102C545.575 322.887 618.588 322.15 678.167 295.995C715.37 279.661 730.654 252.575 722.719 214.971C719.977 201.96 715.034 190.852 721.291 177.909C728.526 162.929 745.167 153.59 760.422 146.997C808.209 126.343 864.696 121.955 916.497 118.303C970.012 114.532 1025.77 111.872 1077.56 114.632C1098.28 115.731 1122.12 109.493 1142.61 104.71C1174.15 97.3405 1205.37 88.8388 1236.75 80.9333C1300.53 64.8545 1365.97 49.3652 1432.32 47.6033C1480.22 46.3304 1530.16 53.2308 1570.02 79.9016C1610.4 106.948 1628.32 148.873 1650.72 188.729C1689.4 257.633 1741.65 341.411 1831.14 355.969C1844.71 358.18 1857.75 356.981 1871.3 357.523C1878.27 357.798 1886.21 358.669 1889.74 365.12C1898.92 381.869 1873.77 412.493 1865.31 425.322C1841.93 460.776 1815.64 494.495 1791.13 529.265C1771.67 556.874 1747 587.551 1739.48 620.278C1730.34 659.993 1790.03 688.252 1811.02 716.216C1847.41 764.707 1778.46 792.336 1744.47 815.456C1705.44 841.999 1673.23 890.423 1708.21 931.491C1721.6 947.195 1738.07 956.554 1744.05 977.048C1753.39 1009.1 1746.32 1045.72 1738.74 1077.41C1727.31 1125.03 1709.23 1172.14 1684.65 1215.19C1667.03 1246.01 1637.82 1294.33 1595.03 1290.71C1566.22 1288.29 1536.94 1279.45 1508.89 1271.64C1466.9 1259.95 1425.43 1246.62 1384.19 1232.78C1288.98 1200.92 1194.82 1165.79 1102.5 1127.14C1039.52 1100.77 863.825 992.979 850.605 989.134C811.188 977.678 766.371 979.694 725.733 981.47C671.675 983.828 617.888 989.938 564.144 995.599C538.561 998.279 512.85 1001.55 487.132 1002.87C468.827 1003.81 444.786 1004.62 428.752 994.628C397.456 975.139 432.324 930.547 446.743 911.681C490.917 853.844 546.796 803.758 599.19 752.547C624.902 727.404 651.006 702.301 674.346 675.141C683.759 664.174 707.357 642.152 697.036 627.132Z" stroke="#112960"/>
<path fill-rule="evenodd" clip-rule="evenodd" d="M720.137 614.66C674.535 565.994 611.594 529.8 557.273 489.156C530.008 468.75 502.573 447.788 479.057 423.482C466.825 410.843 451.55 394.861 449.194 377.243C442.895 330.112 537.471 336.485 565.778 334.695C620.506 331.224 682.333 328.591 731.984 304.539C762.319 289.836 777.258 265.705 771.588 233.987C769.075 219.914 765.161 207.959 771.588 194.14C778.101 180.141 791.669 170.263 805.408 162.858C844.891 141.561 893.956 134.752 938.409 129.68C990.557 123.771 1043.1 121.464 1095.6 122.777C1141.59 123.91 1187.36 111.17 1232.26 102.773C1291.75 91.6558 1352.31 81.9455 1413.18 83.4131C1461.25 84.5791 1509.7 93.7399 1550.8 118.086C1592.56 142.881 1617.67 179.994 1640.3 220.041C1674.52 280.582 1717.17 361.709 1792.24 384.701C1803.16 388.052 1813.34 388.421 1824.6 389.004C1830.07 389.285 1837.13 389.372 1839.85 394.727C1846.37 407.62 1822.24 432.616 1815.51 441.328C1794.01 469.139 1770.71 495.697 1748.68 523.139C1728.12 548.758 1705.72 575.457 1692.94 605.479C1672.61 653.293 1737.61 681.252 1735.79 726.814C1734.65 755.101 1705.79 775.386 1682.94 789.419C1654.81 806.675 1614.3 818.021 1600.22 849.51C1589.73 872.965 1606.19 886.616 1618.86 904.415C1640.34 934.571 1641.8 975.45 1639.57 1010.36C1636.56 1057.53 1624.78 1105.4 1604.74 1148.75C1595.65 1168.41 1584.53 1188.86 1568.15 1204.12C1552.8 1218.43 1538.27 1222.09 1517.77 1219.17C1454.98 1210.19 1391.59 1185.16 1331.39 1162.8C1255.74 1134.71 1181.14 1103.69 1108.76 1068.8C1059.41 1045 1008.95 1019.83 965.631 986.949C954.341 978.378 942.779 969.063 934.524 957.758C928.283 949.261 925.634 942.244 915.115 937.393C883.938 923.018 840.57 926.778 807.165 928.272C753.75 930.651 700.592 936.984 647.506 942.687C616.529 946.037 558.172 956.579 533.436 931.294C512.084 909.461 537.849 872.235 551.01 853.002C584.301 804.363 627.126 761.675 666.858 717.721C685.068 697.576 703.992 677.278 719.031 654.882C722.872 649.172 729.028 641.606 730.085 634.67C731.27 626.722 725.736 620.658 720.137 614.66Z" stroke="#112960"/>
<path fill-rule="evenodd" clip-rule="evenodd" d="M724.058 625.989C681.92 582.96 631.154 547.609 585.916 507.343C565.632 489.289 545.149 470.35 529.694 448.325C521.38 436.482 512.553 421.573 514.845 406.852C521.423 364.601 599.207 368.417 630.633 365.942C677.327 362.307 730.971 358.645 772.26 335.863C799.307 320.941 809.448 298.903 804.399 270.481C798.978 239.993 811.098 217.861 838.681 200.853C873.263 179.547 916.915 170.862 957.068 164.692C1005.44 157.293 1054.43 154.014 1103.44 154.893C1151.1 155.752 1197.27 148.254 1244.61 143.378C1307.39 136.92 1372.17 133.734 1434.24 146.973C1488.27 158.501 1537.08 183.906 1573.67 223.193C1611.89 264.197 1630.81 315.857 1661.84 361.221C1681.19 389.516 1708.18 426.945 1744.35 437.944C1756.41 441.612 1778.4 436.663 1768.76 454.71C1763.26 465.031 1752.95 474.085 1744.81 482.522C1731.65 496.157 1718.06 509.415 1704.68 522.862C1676.17 551.526 1645.64 580.8 1624.27 614.742C1597.35 657.476 1637.37 690.365 1632.49 733.696C1629.87 757.015 1612.6 775.626 1594.33 790.246C1582.51 799.716 1569.58 807.918 1556.37 815.57C1542.58 823.564 1526.26 829.654 1514.23 839.988C1497.09 854.696 1504.54 872.106 1507.75 891.119C1513.41 924.533 1514.65 958.474 1511.45 992.174C1507.54 1033.48 1498.36 1075.97 1479.02 1113.5C1471.5 1128.12 1461.98 1143.61 1447.83 1153.41C1433.68 1163.2 1419.04 1162.53 1402.83 1159.58C1354.74 1150.86 1306.76 1130.58 1261.14 1111.35C1204.05 1087.28 1148.08 1060.38 1094.62 1029.78C1057.73 1008.65 1020.71 985.829 989.843 957.186C980.865 948.849 972.323 939.923 965.417 929.957C960.674 923.123 958.132 914.304 951.261 909.167C929.764 893.131 886.604 897.92 861.393 898.852C811.077 900.71 761.554 909.542 711.302 911.688C683.877 912.862 640.924 915.813 620.784 893.889C601.843 873.28 618.998 840.82 630.318 820.962C652.566 781.916 682.455 747.129 709.245 710.834C720.258 695.898 732.328 680.272 739.463 663.217C745.805 648.02 734.857 637.021 724.058 625.989Z" stroke="#112960"/>
<path fill-rule="evenodd" clip-rule="evenodd" d="M734.422 626.693C700.881 588.828 660.447 555.216 626.664 516.736C606.889 494.2 572.834 456.316 588.128 424.545C604.905 389.634 663.387 388.683 697.192 385.871C737.426 382.522 784.676 377.948 819.109 356.149C829.999 349.258 839.276 340.137 843.208 328.123C847.418 315.265 842.815 304.014 842.216 291.142C840.96 264.14 858.13 242.462 880.852 227.575C912.965 206.526 953.121 196.575 991.051 189.637C1034.02 181.811 1077.71 177.953 1121.48 178.118C1163.31 178.252 1204.7 177.381 1246.58 176.377C1301.34 175.037 1356.88 177.2 1410 190.855C1462.33 204.316 1509.91 229.544 1547.28 266.651C1583.74 302.862 1608.34 347.122 1629.89 392.206C1642.11 417.795 1662.76 456.034 1691.92 468.96C1704.89 474.712 1717.61 474.317 1703.83 489.278C1686.46 508.117 1663.06 523.232 1642.95 539.344C1613.94 562.596 1584.21 586.303 1559.86 613.948C1544.31 631.602 1537.38 648.732 1538.45 671.589C1539.28 689.001 1543.03 706.232 1541.13 723.711C1536.69 764.737 1502.27 792.871 1471.84 819.069C1452.26 835.919 1434.39 848.77 1424.31 872.739C1412.39 901.067 1407.39 931.886 1399.43 961.299C1390.68 993.598 1380.57 1027.2 1361.48 1055.65C1344.48 1080.97 1323.8 1092.33 1292.86 1085.51C1244.6 1074.87 1197.03 1048.67 1154.18 1024.44C1110.57 999.78 1067.71 972.054 1031.57 938.161C1012.06 919.858 998.744 898.368 981.417 878.706C959.622 854.021 910.318 863.37 881.016 865.459C832.375 868.928 679.323 894.885 693.445 810.812C699.34 775.72 722.554 743.333 739.532 712.367C746.568 699.515 756.752 684.092 758.343 669.366C760.077 653.327 744.506 638.091 734.422 626.693Z" stroke="#112960"/>
<path fill-rule="evenodd" clip-rule="evenodd" d="M752.131 629.908C726.5 595.595 695.825 563.178 673.832 526.118C659.565 502.117 645.555 470.049 663.959 444.654C684.732 415.996 730.537 409.316 764.194 405.664C798.87 401.905 840.267 398.743 868.608 377.013C877.625 370.092 885.058 360.758 886.442 349.582C887.776 338.861 884.01 328.14 885.258 317.225C888.055 292.715 903.884 272.52 924.293 257.873C984.665 214.541 1074.52 204.906 1147.36 203.773C1183.82 203.211 1221.34 206.166 1258.04 208.283C1305.66 211.03 1353.34 216.926 1398.76 231.138C1495.31 261.344 1560.03 328.335 1605.23 411.695C1619.45 437.934 1630.34 466.323 1652.63 487.41C1664.12 498.298 1661.61 506.117 1649.86 516.047C1631.49 531.566 1609.08 543.425 1588.7 556.377C1559.7 574.797 1530.08 593.491 1504.43 615.556C1486.76 630.766 1474.21 645.419 1470.4 668.228C1467.68 684.49 1468.32 701.06 1466.68 717.422C1463.57 748.506 1452.92 779.355 1434.07 805.138C1419.09 825.574 1401.25 844.148 1382.82 861.857C1358.86 884.913 1338.59 908.338 1320.39 935.703C1296.27 971.925 1262.37 1038.74 1205.54 1021.06C1142.87 1001.55 1084.12 951.971 1043.91 903.936C1030.41 887.808 1019.32 868.028 1001.11 856.135C973.843 838.359 946.179 838.982 913.75 839.055C865.199 839.156 759.55 849.053 758.408 780.762C757.959 753.705 770.429 728.123 776.399 702.098C783.133 672.952 769.637 653.293 752.131 629.908Z" stroke="#112960"/>
<path fill-rule="evenodd" clip-rule="evenodd" d="M771.221 632.967C745.869 588.246 689.018 514.761 732.257 465.031C755.098 438.75 795.496 428.874 829.385 422.989C856.658 418.228 889.548 416.44 910.154 396.259C925.3 381.421 918.576 359.828 924.379 341.254C931.581 318.227 948.111 299.385 968.425 285.223C1025.19 245.645 1104.12 233.499 1172.4 230.914C1243.32 228.236 1321.46 240.764 1388.2 264.862C1471.41 294.919 1533.75 351.833 1577.34 423.906C1585.39 437.21 1592.7 450.863 1600.42 464.328C1605.61 473.361 1613.3 482.099 1617.39 491.6C1624.2 507.442 1616.18 520.392 1603.32 530.717C1584.82 545.581 1562.09 556.16 1541 567.315C1512.16 582.582 1482.67 597.574 1455.84 615.485C1437.81 627.537 1418.94 640.52 1412.49 661.431C1408.08 675.693 1407.17 690.799 1407.33 705.569C1407.67 737.24 1405.9 762.852 1390.15 791.858C1364.25 839.478 1324.4 882.297 1282.31 917.925C1249.28 945.887 1197.01 989.322 1148.88 970.627C1105.7 953.888 1080.44 913.821 1051.99 881.427C1038.16 865.678 1022.62 851.296 1004.36 840.094C981.344 825.972 959.674 820.047 932.402 817.737C886.5 813.846 817.287 812.835 803.098 761.144C797.859 742.068 800.849 722.309 798.101 702.985C794.511 677.434 784.012 655.525 771.221 632.967Z" stroke="#112960"/>
<path fill-rule="evenodd" clip-rule="evenodd" d="M797.584 634.623C779.53 585.69 755.813 524.021 799.417 480.53C820.537 459.462 850.246 447.684 878.999 438.883C899.591 432.575 932.288 430.719 944.914 411.326C954.186 397.055 955.47 377.368 963.859 362.078C975.386 341.057 992.847 323.742 1013.33 310.188C1066.7 274.869 1136.21 261.222 1199.6 257.314C1337.34 248.834 1477.49 316.369 1551.19 427.481C1573.17 460.602 1601.53 495.854 1566.02 529.691C1527.24 566.606 1468.83 583.9 1422.55 610.13C1404.87 620.144 1382.34 632.183 1372.47 650.315C1366.54 661.215 1366.13 674.889 1365.86 686.888C1365.15 717.448 1362.45 744.931 1349.36 773.447C1329.14 817.513 1296.91 858.168 1260.38 891.47C1228.53 920.508 1183.1 954.634 1136.83 933.7C1101.36 917.612 1078.86 883.466 1051.3 858.296C1020.63 830.263 982.697 811.373 941.041 802.143C900.519 793.187 856.073 787.148 834.718 749.101C827.392 736.049 819.738 719.151 816.992 704.705C812.559 680.888 806.068 657.45 797.584 634.623Z" stroke="#112960"/>
<path fill-rule="evenodd" clip-rule="evenodd" d="M826.978 634.968C818.626 585.556 817.698 534.033 856.503 495.088C874.613 476.92 897.506 464.012 920.656 452.318C937.688 443.713 955.278 436.455 967.998 422.347C979.784 409.285 988.743 394.119 1000.12 380.716C1015.13 362.953 1033.09 347.577 1053.31 335.177C1103.99 304.155 1165.65 289.645 1224.63 284.612C1253.19 282.166 1284.16 280.893 1312.52 287.561C1339.91 293.995 1367 304.168 1392.18 316.03C1445.72 341.222 1492.12 378.115 1525.76 424.76C1548.82 456.754 1561.29 487.864 1531.42 520.321C1497.75 556.906 1444.95 577.091 1401.44 600.836C1371.59 617.121 1338.14 633.085 1332.57 667.693C1328.13 695.231 1324.52 721.367 1313.04 747.397C1295.94 785.792 1270.81 820.571 1239.12 849.673C1210.15 876.185 1173.49 898.683 1132.05 884.522C1099.21 873.284 1073.73 848.105 1045.04 830.104C1013.07 809.999 977.942 798.914 940.951 790C907.707 781.958 876.405 769.6 854.918 743.363C850.521 738.001 845.902 732.164 842.511 726.166C838.185 718.513 838.521 710.926 837.672 702.348C835.459 679.709 830.754 657.332 826.978 634.968Z" stroke="#112960"/>
<path fill-rule="evenodd" clip-rule="evenodd" d="M859.388 630.929C860.102 583.995 872.125 539.638 905.053 503.061C919.131 487.414 935.941 474.526 951.432 460.188C963.904 448.629 975.691 437.889 990.033 428.364C1024.05 405.81 1051.7 376.623 1087.86 356.539C1136.12 329.689 1191.4 314.848 1246.26 308.914C1273.04 306.014 1300.71 305 1327.81 308.276C1351.09 311.089 1373.38 320.963 1394.05 331.065C1434.58 350.854 1473.93 378.98 1500.25 414.563C1558.26 493.013 1443.88 550.05 1385.17 583.451C1358.17 598.816 1316.91 616.611 1305.86 647.046C1297.95 668.788 1293.13 690.899 1282.95 711.97C1255.6 768.557 1200.08 835.112 1126.1 826.252C1094.44 822.466 1065.59 807.087 1036.03 796.763C1005.6 786.131 974.193 780.203 942.563 773.699C913.002 767.624 889.442 758.978 870.348 735.8C861.222 724.731 862.028 711.48 861.215 697.901C859.888 675.595 859.067 653.161 859.388 630.929Z" stroke="#112960"/>
<path fill-rule="evenodd" clip-rule="evenodd" d="M888.901 624.918C900.787 554.075 944.931 476.734 1009.84 435.592C1086.19 387.195 1168.91 346.442 1260.13 334.726C1302.43 329.294 1348.76 326.621 1388.67 344.385C1419.04 357.896 1454.32 378.092 1471.03 406.494C1511.93 475.964 1420.97 531.266 1369.14 563.406C1341.24 580.708 1305.73 597.568 1284.7 622.834C1272.5 637.484 1266.27 656.863 1256.42 672.952C1226.57 721.711 1177.43 761.037 1116.22 768.071C1087.92 771.319 1059.41 767.3 1031.33 764.105C1002.58 760.836 973.467 759.061 944.895 754.5C922.087 750.856 895.208 744.686 886.808 721.771C876.215 692.894 884.051 653.848 888.901 624.918Z" stroke="#112960"/>
<path fill-rule="evenodd" clip-rule="evenodd" d="M917.841 613.537C935.176 546.933 971.884 481.964 1033.59 442.203C1066.32 421.118 1104.31 406.564 1140.78 392.184C1182.12 375.886 1225.31 363.236 1269.43 356.961C1324.36 349.144 1413.32 342.098 1442.02 400.859C1470.51 459.184 1398.53 510.805 1355.96 540.222C1328.67 559.067 1299.47 576.363 1273.39 596.965C1259.25 608.134 1248.36 621.039 1236.4 634.139C1203.33 670.434 1156.19 699.168 1108.14 714.507C1061.57 729.376 1003.96 735.959 954.799 731.045C933.588 728.934 918.427 721.807 912.012 701.548C903.123 673.384 910.675 641.051 917.841 613.537Z" stroke="#112960"/>
<path fill-rule="evenodd" clip-rule="evenodd" d="M946.597 595.598C963.818 536.956 1000.96 483.393 1055.14 448.197C1115.88 408.741 1194.08 386.817 1265.96 375.668C1304.16 369.746 1386.96 353.69 1406.43 399.642C1425.91 445.593 1369.61 490.877 1337.21 515.806C1297.88 546.015 1255.48 575.183 1213.13 602.288C1176.34 625.854 1137.07 649.948 1097.22 668.147C1074.74 678.472 1051.33 686.901 1027.25 693.336C1009.43 698.063 986.758 705.113 968.068 701.595C920.926 692.709 938.361 623.638 946.597 595.598Z" stroke="#112960"/>
<path fill-rule="evenodd" clip-rule="evenodd" d="M982.094 578.038C1019.88 467.137 1139.59 412.595 1254.86 393.583C1281.64 389.17 1356.72 373.26 1371.7 407.137C1386.2 439.983 1340.06 478.937 1318.46 497.392C1251.53 554.58 1168.83 596.982 1090.46 638.989C1066 652.101 1021.89 680.554 991.547 667.429C958.603 653.152 974.266 601.033 982.094 578.038Z" stroke="#112960"/>
<path fill-rule="evenodd" clip-rule="evenodd" d="M1020.8 556.692C1053.66 475.022 1149.23 428.182 1237.1 412.74C1258.62 408.962 1313.28 397.198 1329.59 419.989C1344.67 441.071 1308.67 471.619 1295.2 483.758C1265.22 510.789 1229.68 533.058 1194.58 554.461C1162.12 574.264 1129.31 594.563 1095.16 611.311C1077.17 620.127 1043.43 638.938 1022.99 625.326C1000.98 610.681 1013.5 574.827 1020.8 556.692Z" stroke="#112960"/>
<path fill-rule="evenodd" clip-rule="evenodd" d="M1063.45 532.831C1088.49 479.498 1155.57 444.865 1214.74 433.356C1230.66 430.266 1265.07 422.25 1278.5 436.493C1290.87 449.61 1270.94 468.84 1262.09 477.721C1222.9 517.087 1165.49 552.249 1112.9 573.845C1099.68 579.275 1075.9 589.932 1062.3 578.973C1048.35 567.719 1057.69 545.077 1063.45 532.831Z" stroke="#112960"/>
<path fill-rule="evenodd" clip-rule="evenodd" d="M1108.69 510.428C1122.8 483.945 1159.69 463.964 1190.24 457.603C1211.74 453.131 1237.59 456.994 1218.85 480.047C1200.24 502.924 1165.69 523.819 1136.42 533.082C1114.08 540.146 1096.57 533.176 1108.69 510.428Z" stroke="#112960"/>
<path fill-rule="evenodd" clip-rule="evenodd" d="M-35.732 693.856C-36.6372 641.534 -66.25 587.157 -51.6253 533.844C-39.6163 490.058 20.8422 486.403 57.1115 466.565C85.9332 450.805 102.29 422.887 117.876 396.1C131.881 372.052 144.46 347.28 159.213 323.626C168.763 308.335 185.163 278.308 205.874 277.765C225.701 277.243 243.882 300.642 255.399 314.474C270.416 332.504 283.729 351.725 298.311 370.043C322.885 400.941 352.37 423.811 386.13 445.456C424.55 470.085 463.603 493.872 503.291 516.819C532.512 533.764 561.932 550.582 590.02 569.201C607.638 580.883 646.523 602.803 646.702 624.341C646.787 634.618 636.417 645.999 629.425 654.214C617.594 668.12 604.11 680.834 590.583 693.273C565.389 716.445 539.126 738.565 513.148 760.953C479.43 790.01 447.223 818.591 417.582 851.577C386.936 885.722 357.658 920.992 327.781 955.779C307.548 979.346 287.336 1005.81 258.15 1020.27C221.596 1038.35 191.591 1019.29 154.623 1019.07C122.823 1018.87 125.167 949.673 121.126 930.432C117.071 910.956 108.134 892.826 104.67 873.303C100.351 848.933 100.294 824.001 99.2322 799.37C97.9422 769.242 97.4291 740.56 63.141 729.072C43.6272 722.544 22.517 721.171 2.31908 717.261C-10.7661 714.724 -35.447 710.386 -35.732 693.856Z" stroke="#112960"/>
<path fill-rule="evenodd" clip-rule="evenodd" d="M-20.0983 684.548C-23.4316 640.689 -43.1249 584.554 -24.5023 539.28C-8.59212 500.591 41.1656 495.576 74.6705 475.253C102.33 458.49 114.642 431.059 128.468 404.111C139.56 382.493 150.317 360.668 162.908 339.741C172.187 324.319 186.356 298.283 205.649 295.091C222.994 292.221 241.595 315.207 251.331 326.901C265.536 343.972 277.684 362.512 290.233 380.663C312.281 412.546 334.858 441.217 367.128 464.638C399.541 488.16 435.002 505.748 470.841 524.053C498.878 538.375 526.773 553.113 553.411 569.648C573.254 581.959 601.784 597.716 610.863 619.669C618.051 637.035 581.598 665.854 570.849 676.026C548.721 696.939 525.274 716.572 501.783 736.084C473.146 759.861 443.596 780.653 418.306 807.776C373.074 856.268 335.265 916.654 277.063 952.695C241.96 974.433 202.894 979.991 163.85 976.739C148.39 975.452 144.678 954.954 142.73 942.999C139.489 923.138 139.082 902.936 136.591 882.994C134.257 864.327 129.075 846.592 124.899 828.287C120.674 809.74 119.489 790.738 116.377 772.064C114.45 760.471 112.544 746.98 104.114 737.66C95.3916 728.011 81.0017 723.968 68.4249 720.897C44.8059 715.184 -17.7428 715.499 -20.0983 684.548Z" stroke="#112960"/>
<path fill-rule="evenodd" clip-rule="evenodd" d="M0.0232308 666.188C-5.58275 625.929 -13.4311 575.786 9.40698 538.695C28.0745 508.367 67.8877 501.824 96.3247 482.063C119.977 465.63 128.911 439.494 140.651 415.206C150.285 395.284 159.969 375.276 171.645 356.318C180.5 341.941 191.912 322.447 209.494 317.432C224.527 313.146 241.509 332.345 249.843 341.901C264.033 358.186 275.602 376.434 287.092 394.441C305.888 423.905 323.185 455.378 349.936 479.345C375.931 502.601 406.81 516.329 438.268 531.764C462.363 543.59 486.308 555.871 509.011 569.974C526.443 580.795 548.045 593.619 557.129 611.626C564.985 627.155 544.817 645.536 534.741 656.492C518.102 674.572 499.634 691.159 481.423 707.813C461.77 725.779 440.003 742.353 420.986 760.762C380.994 799.5 349.044 842.391 299.754 872.069C267.832 891.295 224.877 908.759 187.142 905.619C160.004 903.355 161.79 846.958 159.183 828.938C154.898 799.474 146.621 768.516 133.474 741.375C122.184 718.119 95.3535 710.947 70.6729 705.73C55.2118 702.456 39.008 700.688 24.054 695.626C6.74327 689.759 2.37274 683.063 0.0232308 666.188Z" stroke="#112960"/>
<path fill-rule="evenodd" clip-rule="evenodd" d="M18.7922 647.317C15.4544 613.281 16.2049 573.031 37.8259 543.588C56.7737 517.799 90.5096 511.009 114.504 490.693C133.23 474.843 140.585 449 150.655 428.039C162.963 402.411 180.21 355.076 211.258 345.432C240.141 336.466 270.346 393.74 280.803 410.819C297.356 437.851 311.201 467.496 331.278 492.459C348.568 513.95 371.733 525.831 396.32 538.598C427.668 554.905 475.263 574.24 492.024 606.021C504.518 629.701 463.892 664.907 450.018 681.314C435.509 698.453 424.581 718.769 409.607 735.304C385.977 761.396 347.689 782.404 316.075 798.435C285.342 814.029 245.43 831.29 210.565 830.262C187.65 829.591 183.29 796.36 178.402 780.127C171.397 757.051 162.084 736.372 142.078 720.677C121.715 704.699 97.7142 697.171 72.4838 690.582C59.5326 687.224 44.7589 684.605 33.1729 677.822C20.3718 670.441 20.0788 660.4 18.7922 647.317Z" stroke="#112960"/>
<path fill-rule="evenodd" clip-rule="evenodd" d="M41.6608 627.699C41.846 598.293 49.0059 566.937 70.2362 544.254C87.9186 525.361 115.596 519.046 132.524 499.732C145.931 484.441 152.756 462.975 161.733 445.219C172.712 423.459 188.235 385.446 215.536 377.894C242.18 370.542 265.747 412.412 275.963 428.979C290.924 453.272 303.036 479.021 318.132 503.247C329.958 522.254 344.421 534.504 363.677 546.754C386.283 561.142 417.822 577.081 429.897 600.886C438.603 618.122 417.53 645.663 409.878 660.846C404.749 671.045 400.054 681.403 397.475 692.457C395.466 701.065 395.266 709.031 389.446 716.423C374.791 735.015 342.661 737.441 320.861 743.569C291.908 751.702 261.188 760.945 230.888 762.709C212.265 763.812 202.762 747.699 192.132 736.365C179.572 722.965 161.79 713.328 146.259 703.217C125.763 689.851 103.457 681.537 80.3811 673.023C69.9726 669.18 57.7474 665.411 49.6827 657.772C41.2618 649.853 41.5966 638.311 41.6608 627.699Z" stroke="#112960"/>
<path fill-rule="evenodd" clip-rule="evenodd" d="M65.6794 610.242C69.3593 585.546 80.8268 561.941 100.196 544.483C115.044 531.079 134.763 523.533 146.679 507.428C157.783 492.416 165.521 475.346 174.692 459.295C184.398 442.326 198.818 413.964 221.204 409.346C245.33 404.373 263.915 432.984 274.205 448.84C287.206 468.879 297.083 490.439 308.708 511.168C317.465 526.618 328.636 540.748 341.848 553.088C355.704 566.097 374.496 578.556 381.506 596.443C387.704 612.286 376.108 631.454 374.061 647.518C371.872 664.682 375.708 682.71 363.57 697.447C338.539 727.84 275.717 722.204 239.803 722.854C204.366 723.524 175.876 704.926 147.2 687.233C128.259 675.552 108.533 665.66 89.1136 654.776C69.3165 643.671 62.4417 631.976 65.6794 610.242Z" stroke="#112960"/>
<path fill-rule="evenodd" clip-rule="evenodd" d="M87.9951 596.107C98.8773 560.329 132.865 541.313 157.163 514.275C177.043 492.14 191.95 446.3 225.431 440.237C263.444 433.355 286.2 494.092 299.416 517.528C314.08 543.52 340.197 564.662 351.058 592.176C356.767 606.617 351.864 620.093 348.825 634.528C345.492 650.378 342.987 666.583 331.484 679.341C308.842 704.447 264.622 704.273 232.774 704.964C199.807 705.681 170.642 688.476 144.375 671.305C116.517 653.121 76.8489 632.797 87.9951 596.107Z" stroke="#112960"/>
<path fill-rule="evenodd" clip-rule="evenodd" d="M106.222 586.405C118.484 560.914 144.252 540.191 165.161 520.628C182.612 504.318 201.386 471.486 227.995 469.146C259.269 466.386 278.223 501.445 290.528 522.941C302.639 544.065 320.091 566.368 326.797 589.552C333.791 613.703 315.167 646.228 297.407 663.317C277.597 682.374 245.188 689.415 217.379 688.655C188.262 687.881 161.545 672.132 139.493 655.796C115.918 638.333 91.9613 615.996 106.222 586.405Z" stroke="#112960"/>
<path fill-rule="evenodd" clip-rule="evenodd" d="M123.134 581.606C134.847 560.404 155.15 542.469 173.871 526.471C188.318 514.12 209.636 493.119 230.479 492.605C253.408 492.037 272.841 509.665 281.956 527.734C290.943 545.555 300.411 567.899 301.756 587.451C304.677 630.027 245.206 677.721 200.549 673.84C158.208 670.159 99.7801 623.849 123.134 581.606Z" stroke="#112960"/>
<path fill-rule="evenodd" clip-rule="evenodd" d="M138.775 579.268C154.933 551.644 194.183 512.263 230.52 511.327C272.229 510.258 282.7 554.083 277.263 585.842C271.74 618.256 223.653 665.173 185.309 658.833C147.886 652.647 119.625 612.029 138.775 579.268Z" stroke="#112960"/>
<path fill-rule="evenodd" clip-rule="evenodd" d="M155.289 574.802C168.97 551.673 198.164 522.783 228.613 521.908C264.894 520.874 264.209 557.874 255.982 580.903C247.427 604.813 209.749 645.65 177.981 639.202C147.091 632.908 142.178 596.969 155.289 574.802Z" stroke="#112960"/>
<path fill-rule="evenodd" clip-rule="evenodd" d="M169.673 572.14C178.703 555.636 201.304 534.777 222.79 534.11C249.052 533.308 243.946 562.654 237.161 576.818C229.096 593.673 202.062 622.958 179.375 618.212C157.039 613.54 162.222 585.738 169.673 572.14Z" stroke="#112960"/>
<path fill-rule="evenodd" clip-rule="evenodd" d="M1405.07 1515.1C1346.94 1548.21 1281.23 1575.54 1219.26 1603.32C1128.71 1643.92 1036.82 1683.42 941.666 1713.66C890.652 1729.86 824.547 1753.23 769.809 1740.53C749.795 1735.89 731.544 1721.85 713.6 1712.73C688.856 1700.15 663.749 1688.2 638.684 1676.22C588.405 1652.2 537.968 1628.42 488.552 1602.87C464.757 1590.56 441.669 1575.05 416.896 1564.55C402.42 1558.41 385.096 1561.28 369.628 1561.67C333.797 1562.58 297.987 1564.29 262.177 1565.75C218.376 1567.53 174.475 1569.43 130.624 1568.72C110.846 1568.4 62.4075 1571.7 51.5197 1555.7C45.662 1547.09 59.4679 1531.56 65.8679 1524.37C77.619 1511.17 91.1254 1499.27 104.453 1487.49C135.276 1460.24 168.011 1434.29 195.409 1403.86C209.486 1388.22 227.929 1369.1 218.74 1347.74C209.464 1326.17 193.397 1307.49 183.593 1285.99C172.306 1261.25 167.625 1235.51 162.296 1209.28C158.35 1189.89 149.16 1172.71 140.52 1154.83C130.974 1135.08 121.085 1115.15 114.456 1094.32C110.075 1080.55 103.005 1055.79 118.331 1047.08C140.106 1034.69 180.939 1044.72 205.761 1048.37C240.066 1053.41 274.121 1059.82 308.332 1065.35C333.169 1069.37 358.091 1073.78 383.341 1074.24C424.046 1075 464.886 1072.38 505.483 1069.94C580.656 1065.43 655.29 1059.31 730.717 1059.31C796.798 1059.31 949.508 1131.08 985.253 1143.72C1056.6 1168.95 1129.85 1192.87 1197.37 1226.43C1215.63 1235.52 1243.74 1247.63 1253.35 1266.34C1259.28 1277.86 1256.56 1284.53 1270.54 1291.96C1289.62 1302.09 1314.06 1306.07 1335.18 1310.6C1369.2 1317.9 1403.47 1324.08 1437.64 1330.69C1506.75 1344.03 1575.39 1359.11 1644.21 1373.62C1665.01 1378.01 1690.19 1378.98 1710.02 1386.71C1722.81 1391.67 1721.48 1397.92 1711.58 1405.46C1694.22 1418.7 1669.89 1426.04 1649.39 1433.59C1619.34 1444.65 1588.81 1454.51 1558.25 1464.24C1527.7 1473.96 1496.99 1483.39 1466.43 1493.13C1446.24 1499.55 1423.21 1504.76 1405.07 1515.1Z" stroke="#112960"/>
<path fill-rule="evenodd" clip-rule="evenodd" d="M1357.24 1507.81C1295.75 1540.99 1227.5 1567.43 1161.7 1593.21C1077.49 1626.24 991.373 1657.19 902.646 1677.84C850.55 1689.95 789.085 1703.32 735.854 1689.43C716.864 1684.48 702.677 1673.34 686.399 1663.5C667.844 1652.28 648.576 1642 629.308 1631.88C589.643 1611.05 549.561 1590.93 509.059 1571.52C487.607 1561.2 463.993 1547.37 439.757 1543.79C420.489 1540.94 398.602 1545.07 379.248 1546.27C344.394 1548.43 309.547 1550.65 274.678 1552.54C234.443 1554.72 194.094 1556.74 153.773 1556.39C131.301 1556.19 92.7211 1559.4 76.8283 1545.77C62.9623 1533.87 113.445 1490.84 122.323 1482.66C150.048 1457.14 179.207 1432.83 205.012 1405.53C220.263 1389.44 238.832 1369.86 245.262 1348.52C250.735 1330.34 240.174 1309.62 233.936 1292.82C226.136 1271.76 219.842 1249.94 210.779 1229.33C202.707 1210.97 189.862 1194.61 178.579 1177.91C166.169 1159.55 153.602 1140.88 144.389 1120.85C138.744 1108.52 129.402 1087.88 140.621 1076.13C153.58 1062.58 193.53 1071.43 209.951 1073.37C243.264 1077.34 276.319 1083.24 309.404 1088.52C364.354 1097.3 416.743 1104.97 472.699 1103.13C545.569 1100.73 618.367 1095.08 691.223 1091.96C718.127 1090.79 745.46 1088.44 772.385 1089.71C787.821 1090.44 799.575 1094.87 808.553 1104.85C820.813 1118.48 849.052 1126.03 868.691 1133.85C899.313 1146.04 930.321 1157.37 961.243 1168.85C1029.12 1194.07 1098.31 1218.38 1162.69 1250.99C1183.06 1261.31 1206.38 1272.81 1221.44 1289.85C1229.85 1299.36 1227.73 1308.51 1232.86 1318.61C1239.66 1331.9 1261.99 1337.89 1275.35 1342.24C1301.11 1350.64 1327.94 1356.26 1354.56 1361.54C1414.79 1373.46 1475.16 1381.3 1536.37 1387.08C1550.72 1388.42 1607.2 1393.07 1577.54 1415.47C1544.76 1440.22 1497.43 1452.36 1458.84 1466.31C1424.08 1478.85 1389.29 1490.52 1357.24 1507.81Z" stroke="#112960"/>
<path fill-rule="evenodd" clip-rule="evenodd" d="M1272.26 1501.68C1214.47 1530.87 1150.44 1552.65 1088.19 1573.48C1012.66 1598.76 935.231 1621.29 856.011 1633.91C806.245 1641.84 751.378 1647.92 701.948 1634.76C668.192 1625.77 642.081 1601.48 612.433 1584.76C582.785 1568.05 551.937 1552.36 520.167 1539.28C500.449 1531.16 479.238 1522.99 457.299 1524.06C403.954 1526.66 350.673 1532.85 297.271 1535.86C261.944 1537.87 226.545 1539.52 191.11 1539.02C169.742 1538.73 140.387 1539.94 121.47 1529.38C100.559 1517.71 211.9 1418.05 222.423 1406.84C248.806 1378.71 280.754 1341.39 275.653 1301.39C270.774 1263.15 249.627 1234.61 225.709 1204.65C212.135 1187.6 168.606 1142.07 184.738 1119.91C193.954 1107.24 224.33 1111.63 238.761 1112.49C267.202 1114.19 295.485 1117.85 323.776 1121.02C365.026 1125.62 407.412 1132.73 448.84 1134.81C477.688 1136.25 506.707 1134.32 535.605 1134.28C577.041 1134.23 618.477 1134.52 659.912 1134.87C694.704 1135.16 729.789 1134.87 764.459 1138C786.013 1139.93 802.373 1144.26 817.833 1156.5C831.285 1167.15 851.581 1173.39 868.727 1180.16C897.046 1191.33 925.737 1201.69 954.335 1212.22C1014.21 1234.26 1074.77 1255.85 1132.08 1283.4C1158.24 1295.96 1202.23 1313.56 1208.36 1344.04C1210.58 1355.03 1212.21 1359.77 1223.64 1366.02C1239.86 1374.89 1259.29 1378.89 1277.5 1382.36C1319.93 1390.46 1363.6 1389.25 1405.96 1397.26C1423.22 1400.56 1445.74 1407.69 1426.04 1424C1403.06 1443.08 1369.61 1453.57 1342.07 1465.35C1328.33 1471.23 1314.17 1476.73 1301.12 1483.91C1291.09 1489.44 1282.51 1496.54 1272.26 1501.68Z" stroke="#112960"/>
<path fill-rule="evenodd" clip-rule="evenodd" d="M1162.79 1492.57C1109.4 1516.27 1051.41 1533.51 994.46 1549.05C931.206 1566.29 866.426 1580.57 800.79 1586.64C755.468 1590.85 707.179 1592.09 663.191 1579.21C635.373 1571.06 616.514 1553.92 592.576 1539.55C556.449 1517.83 517.361 1500.62 473.958 1504.81C425.298 1509.49 376.479 1513.01 327.5 1515.35C297.956 1516.77 268.298 1517.83 238.718 1516.84C220.016 1516.23 195.921 1515.19 179.651 1507.23C157.882 1496.58 239.652 1415.52 249.845 1403.71C275.124 1374.41 293.655 1343.66 304.483 1307.36C313.313 1277.74 295.274 1254.46 276.665 1232.3C265.095 1218.54 227.712 1183.93 239.417 1166.06C245.837 1156.21 266.993 1156.72 278.355 1156.21C300.01 1155.26 321.758 1156.25 343.413 1156.69C375.39 1157.36 409.427 1152.75 441.133 1156.46C511.398 1164.68 581.485 1171.79 652.185 1177.42C691.159 1180.53 730.368 1183.34 768.992 1189.33C782.858 1191.47 797.181 1193.75 810.32 1198.61C818.772 1201.73 823.38 1207.05 830.513 1211.41C864.522 1232.18 908.916 1242.86 947.22 1256.17C998.141 1273.87 1049.33 1291.29 1098.9 1312.19C1124.97 1323.18 1161.38 1335.82 1179.32 1358.26C1184.74 1365.04 1182.43 1370.46 1185.84 1376.98C1189.76 1384.5 1201.68 1386.74 1209.38 1388.83C1226.85 1393.59 1299.97 1400.79 1266.27 1428.7C1250.19 1442 1229.71 1450.53 1211.58 1460.98C1205.02 1464.77 1198.62 1468.58 1193.15 1473.68C1184 1482.25 1174.98 1487.14 1162.79 1492.57Z" stroke="#112960"/>
<path fill-rule="evenodd" clip-rule="evenodd" d="M1046.16 1482.3C940.747 1520.66 817.21 1546.79 702.285 1541.73C664.068 1540.04 622.948 1534.4 589.82 1515.1C570.286 1503.7 554.675 1490.83 531.21 1486.71C514.271 1483.74 496.03 1487.12 478.991 1488.34C454.31 1490.11 429.616 1491.69 404.9 1492.97C374.259 1494.53 343.517 1495.74 312.819 1495.1C290.883 1494.63 260.592 1495.16 241.537 1484.09C218.787 1470.89 276.696 1408.99 284.844 1397.96C304.592 1371.22 318.437 1345.32 323.44 1313.09C324.912 1303.71 329.873 1294.08 329.23 1284.62C328.558 1274.96 322.218 1266.36 316.364 1258.76C308.709 1248.8 282.149 1225.18 289.754 1213.04C293.957 1206.33 309.731 1205.49 317.908 1204.07C333.246 1201.38 348.806 1199.94 364.238 1197.81C390.419 1194.18 416.414 1182.34 442.689 1182.67C513.342 1183.56 585.016 1204.13 654.254 1215.43C695.416 1222.17 736.858 1228.29 777.52 1237.41C790.385 1240.3 803.637 1243.29 815.866 1248.2C824.4 1251.62 829.882 1257.71 837.787 1261.54C868.1 1276.25 902.958 1285.17 935.508 1295.07C977.764 1307.94 1020.16 1320.43 1062.13 1334.14C1088.43 1342.73 1122.25 1350.28 1144.91 1366.22C1161.47 1377.85 1150.15 1381.33 1141.42 1392.17C1136.96 1397.69 1137.99 1403.14 1136.05 1409.4C1133.29 1418.33 1125.47 1424.76 1118.13 1430.54C1108.02 1438.53 1094.55 1445.1 1086.28 1454.89C1083.36 1458.34 1083.5 1462.62 1081.14 1465.62C1074.28 1474.37 1056.07 1478.69 1046.16 1482.3Z" stroke="#112960"/>
<path fill-rule="evenodd" clip-rule="evenodd" d="M934.084 1468.64C848.531 1492.75 753.339 1506.48 662.906 1500.11C631.442 1497.89 599.785 1492.73 570.475 1481.4C557.14 1476.26 547.13 1470.53 532.518 1470.23C498.614 1469.51 464.603 1472 430.705 1472.6C406.447 1473.03 382.068 1473.18 357.867 1471.35C341.685 1470.13 319.803 1468.67 306.546 1459.35C287.282 1445.78 322.057 1399.65 329.135 1386.9C340.865 1365.77 352.501 1342.27 347.849 1317.81C346.423 1310.33 343.897 1303.73 343.569 1296.1C343.255 1289.54 344.132 1283.49 341.656 1277.23C338.596 1269.46 324.983 1257.41 329.663 1250.26C332.852 1245.37 342.313 1245.14 348.606 1243.58C358.812 1241.05 368.778 1237.72 378.401 1233.64C388.532 1229.32 397.158 1222.65 407.653 1219.08C424.691 1213.29 443.762 1212.75 461.67 1212.78C533.125 1212.89 605.486 1226.12 675.128 1239.96C711.394 1247.16 747.86 1254.84 783.105 1265.77C793.808 1269.09 805.937 1272.43 815.347 1278.56C821.219 1282.37 825.201 1287.16 831.872 1290.03C888.857 1314.54 954.739 1323.64 1015.23 1341.34C1030.98 1345.95 1118.25 1369.24 1072.62 1391.14C1044.9 1404.45 1015.61 1410.5 990.32 1428.7C982.615 1434.24 977.478 1438.82 974.467 1447.26C972.483 1452.89 977.256 1450.03 970.593 1455.91C962.509 1462.97 944.051 1465.82 934.084 1468.64Z" stroke="#112960"/>
<path fill-rule="evenodd" clip-rule="evenodd" d="M845.129 1454.38C744.966 1474.06 638.893 1475 537.149 1457.55C511.5 1453.15 484.806 1454.2 458.843 1453.08C433.616 1452.01 388.764 1454.24 370.442 1436.03C357.156 1422.83 371.572 1394.77 376.559 1380C382.912 1361.19 388.464 1341.75 378.033 1323.48C371.923 1312.78 363.552 1302.59 356.998 1291.99C353.865 1286.93 347.411 1279.17 350.101 1274.37C354.551 1266.46 375.371 1263.13 385.473 1259.4C417.762 1247.47 451.953 1244.43 486.473 1244.51C550.234 1244.67 614.324 1252.86 676.869 1263.96C705.644 1269.07 734.821 1274.52 762.573 1283.4C778.277 1288.43 789.86 1298.12 804.856 1303.86C853.142 1322.37 905.019 1332.27 954.135 1349.2C968.351 1354.1 1021.45 1370.42 994.701 1389.66C968.801 1408.29 931.026 1406.07 904.096 1423.6C901.048 1425.6 897.278 1428 895.511 1431.25C894.466 1433.19 896.305 1436.88 895.511 1437.98C887.24 1449.97 857.842 1451.88 845.129 1454.38Z" stroke="#112960"/>
<path fill-rule="evenodd" clip-rule="evenodd" d="M780.235 1441.37C728.848 1447.98 676.332 1449.62 624.08 1450.04C595.518 1450.27 564.139 1451.98 536.192 1445.19C519.026 1441 502.445 1437.35 484.749 1434.71C465.708 1431.87 435.051 1429.81 423.456 1414.43C414.794 1402.93 420.731 1379.31 421.045 1365.34C421.382 1350.01 418.034 1338.65 406.511 1327.68C399.265 1320.77 366.025 1295.7 369.867 1288.47C373.522 1281.59 396.683 1280.53 406.697 1278.74C438.348 1273.07 470.422 1271.09 502.617 1271.4C552.48 1271.87 602.528 1276.64 651.611 1284.85C671.904 1288.26 692.876 1291.79 712.261 1298.6C725.315 1303.19 736.201 1311.34 749.17 1316.09C786.307 1329.7 825.577 1338.95 862.843 1352.82C874.803 1357.27 913.772 1369.14 904.43 1387.43C896.64 1402.71 870.146 1407.35 857.128 1417.59C834.983 1435.05 808.474 1437.74 780.235 1441.37Z" stroke="#112960"/>
<path fill-rule="evenodd" clip-rule="evenodd" d="M747.862 1432.59C707.1 1436.97 665.389 1438.89 624.028 1438.98C597.335 1439.04 569.174 1439.38 542.979 1433.75C529.822 1430.92 518.388 1424.31 505.935 1419.6C493.112 1414.75 475.417 1409.33 469.874 1398.21C464.667 1387.76 466.611 1372.52 462.038 1359.92C457.97 1348.74 449.457 1341.83 440.289 1334.28C434.447 1329.45 404.448 1308.54 407.918 1303.93C411.636 1298.98 429.653 1299.39 439.028 1298.7C464.858 1296.79 490.779 1296.18 516.678 1296.87C552.027 1297.89 587.646 1300.73 622.382 1307.16C647.024 1311.72 665.61 1322.57 688.585 1330.53C718.348 1340.86 749.18 1349.03 778.659 1360.34C793.348 1365.97 815.091 1373.22 822.613 1387.76C825.506 1393.34 828.312 1407.51 825.092 1413.08C821.224 1419.78 806.827 1422.62 800.031 1424.34C783.005 1428.64 765.188 1430.73 747.862 1432.59Z" stroke="#112960"/>
</svg>
